<svg xmlns="http://www.w3.org/2000/svg" viewBox="0 0 1862 227" role="img" aria-labelledby="title"><title id="title">Tragram wordmark navy</title><path d="M9020 2230 c-361 -35 -623 -144 -828 -343 -88 -86 -186 -226 -223
-318 -61 -153 -89 -295 -89 -454 0 -198 47 -387 131 -527 162 -270 399 -435
737 -515 111 -26 129 -27 362 -27 216 0 257 3 350 23 58 12 144 35 192 51 161
54 406 191 457 256 21 26 21 35 21 459 0 406 -1 433 -18 448 -17 15 -68 17
-534 17 -400 0 -518 -3 -526 -12 -9 -12 -16 -178 -13 -350 l1 -68 253 0 c138
0 275 -3 302 -6 l50 -6 0 -128 c0 -71 -2 -130 -5 -133 -16 -15 -117 -58 -187
-81 -110 -34 -244 -50 -378 -43 -146 7 -241 29 -353 83 -69 34 -111 62 -166
114 -124 118 -180 255 -180 445 -1 197 55 342 179 468 58 59 91 83 166 120 52
25 132 56 179 69 73 19 110 23 255 22 150 0 182 -3 275 -26 119 -30 224 -75
319 -136 35 -23 71 -42 79 -42 16 0 45 28 203 204 55 60 99 115 99 122 0 34
-177 148 -322 208 -97 40 -250 79 -373 95 -119 15 -318 21 -415 11z M10855 2138 c-3 -8 -4 -106 -3 -218 l3 -205 100 -6 c55 -4 310 -7
566 -8 515 -1 530 -3 611 -64 61 -47 88 -99 88 -170 0 -71 -22 -118 -83 -174
-83 -77 -81 -77 -694 -83 -529 -5 -542 -5 -570 -26 -59 -44 -58 -35 -61 -573
-2 -363 0 -497 9 -507 9 -11 54 -14 223 -14 152 0 215 3 224 12 9 9 12 98 12
340 l0 328 160 0 159 0 93 -117 c51 -65 129 -163 173 -219 44 -55 118 -149
164 -208 46 -59 90 -114 98 -122 12 -11 62 -14 276 -14 144 0 268 4 274 8 9 6
-10 38 -65 109 -116 152 -373 481 -421 538 -22 27 -41 53 -41 56 0 4 17 10 38
14 54 10 194 78 267 129 101 73 179 180 226 312 30 85 37 265 15 368 -27 121
-77 208 -171 304 -69 69 -97 89 -177 127 -51 24 -132 54 -178 67 -83 21 -102
22 -698 25 -502 3 -613 2 -617 -9z M14258 2138 c-8 -7 -68 -116 -133 -243 -65 -126 -156 -304 -203 -395
-142 -273 -454 -889 -584 -1149 -95 -192 -118 -245 -107 -252 8 -5 123 -9 257
-9 l243 0 38 62 c21 35 46 71 55 81 15 16 55 17 633 15 l618 -3 20 -33 c11
-18 34 -52 51 -75 l30 -42 254 -3 c141 -1 258 2 263 7 10 10 -755 1547 -942
1890 -28 52 -51 97 -51 101 0 4 -9 19 -21 34 l-20 26 -193 0 c-139 0 -196 -3
-208 -12z m317 -840 c276 -564 316 -650 311 -664 -5 -12 -70 -14 -435 -14
-236 0 -432 3 -434 8 -5 8 433 892 442 892 4 0 56 -100 116 -222z M16262 2138 c-9 -9 -12 -250 -12 -1024 0 -913 2 -1012 16 -1018 9 -3
111 -6 229 -6 166 0 215 3 224 13 8 10 12 188 13 602 l3 587 100 -142 c55 -78
123 -174 151 -213 28 -40 75 -108 105 -152 200 -290 241 -344 268 -350 62 -13
30 -50 581 678 l145 192 3 -594 c1 -419 5 -598 13 -608 9 -10 60 -13 233 -13
121 0 227 4 234 8 10 7 12 219 10 1028 l-3 1019 -210 2 c-152 2 -217 -1 -234
-10 -27 -14 -69 -68 -449 -579 -151 -202 -280 -372 -288 -379 -17 -14 -18 -13
-96 101 -60 87 -275 394 -365 519 -34 47 -98 139 -143 204 -48 69 -93 123
-110 132 -23 12 -70 15 -218 15 -133 0 -192 -4 -200 -12z M88 2132 l-48 -3 0 -210 0 -209 299 0 c164 0 326 -3 360 -6 l61 -7 0
-793 c0 -774 0 -794 19 -804 30 -15 433 -13 454 2 16 12 17 75 20 808 l2 795
400 3 c289 1 406 5 423 14 45 23 52 54 52 238 0 93 -3 170 -7 170 -61 3 -2001
4 -2035 2z M2747 2133 c-4 -3 -7 -95 -7 -204 0 -166 2 -200 16 -213 14 -14 77
-16 547 -16 576 0 603 -2 692 -54 28 -17 58 -46 76 -74 24 -38 29 -56 29 -109
0 -111 -44 -175 -155 -224 -64 -28 -214 -36 -744 -38 -451 -1 -448 -1 -484
-71 -16 -32 -17 -75 -15 -535 l3 -500 223 -3 c179 -2 223 0 228 11 2 7 6 159
7 338 l2 324 157 3 157 3 55 -68 c30 -38 148 -187 261 -333 114 -146 212 -268
219 -272 6 -4 131 -8 279 -8 195 0 267 3 267 12 0 13 -19 39 -165 223 -204
258 -370 475 -364 475 2 0 41 13 86 29 224 78 388 240 447 441 26 88 31 232
12 330 -24 124 -73 217 -164 312 -64 67 -91 86 -176 129 -105 51 -172 72 -291
89 -77 11 -1188 14 -1198 3z M6058 2123 c-37 -43 -1022 -2008 -1014 -2022 5 -7 85 -11 250 -11
275 0 254 -6 311 93 15 26 35 52 45 57 12 6 247 10 619 10 468 0 602 -3 611
-12 5 -7 29 -42 52 -78 l43 -65 255 0 255 0 -2 23 c-4 32 -787 1599 -965 1930
l-50 92 -197 0 c-176 0 -200 -2 -213 -17z m389 -970 c213 -435 253 -520 245
-527 -3 -3 -198 -6 -434 -6 -336 0 -428 3 -428 13 -1 19 423 877 432 877 5 0
88 -161 185 -357z" transform="translate(0 227) scale(0.1 -0.1)" fill="#010e2e" fill-rule="evenodd"/></svg>
